<svg width="21" height="26" viewBox="0 0 21 26" fill="none" xmlns="http://www.w3.org/2000/svg">
<path fill-rule="evenodd" clip-rule="evenodd" d="M21 1.16667C21 0.522334 20.4777 0 19.8333 0H4.08333C3.00037 0 1.96175 0.430207 1.19598 1.19598C0.430207 1.96175 0 3.00037 0 4.08333V21.5833C0 22.6663 0.430207 23.7049 1.19598 24.4707C1.96175 25.2365 3.00037 25.6667 4.08333 25.6667H19.8333C20.4777 25.6667 21 25.1443 21 24.5V1.16667ZM2.8459 2.8459C3.17409 2.51771 3.6192 2.33333 4.08333 2.33333H18.6667V17.5H4.08333C3.47219 17.5 2.87517 17.637 2.33333 17.894V4.08333C2.33333 3.6192 2.51771 3.17409 2.8459 2.8459ZM2.33333 21.5833C2.33333 22.0475 2.51771 22.4926 2.8459 22.8208C3.17409 23.149 3.6192 23.3333 4.08333 23.3333H18.6667V19.8333H4.08333C3.6192 19.8333 3.17409 20.0177 2.8459 20.3459C2.51771 20.6741 2.33333 21.1192 2.33333 21.5833Z" fill="#2D3648"/>
</svg>
