<svg width="258" height="84" viewBox="0 0 258 84" fill="none" xmlns="http://www.w3.org/2000/svg">
<path d="M111.777 17.536H104.749C103.928 17.536 103.349 17.6947 103.013 18.012C102.696 18.3293 102.537 18.88 102.537 19.664V22.436H109.845L109.565 25.908H102.537V34H98.6455V18.124C98.6455 16.6493 98.9628 15.604 99.5975 14.988C100.251 14.372 101.361 14.064 102.929 14.064H111.777V17.536ZM134.565 34H132.129L131.009 32.068L127.117 34.168C124.952 34.168 123.496 33.384 122.749 31.816C122.376 31.0507 122.114 30.2293 121.965 29.352C121.834 28.456 121.769 27.532 121.769 26.58C121.769 25.6093 121.778 24.9 121.797 24.452C121.816 23.9853 121.862 23.4533 121.937 22.856C122.012 22.24 122.114 21.7267 122.245 21.316C122.394 20.9053 122.6 20.4853 122.861 20.056C123.122 19.608 123.44 19.2533 123.813 18.992C124.653 18.4133 125.745 18.124 127.089 18.124H130.925L134.565 17.9V34ZM130.925 28.904V21.4H128.153C127.126 21.4 126.408 21.792 125.997 22.576C125.605 23.36 125.409 24.536 125.409 26.104C125.409 27.6533 125.596 28.7453 125.969 29.38C126.361 30.0147 127.089 30.332 128.153 30.332L130.925 28.904ZM167.806 34H164.166V24.06C164.166 23.0707 164.045 22.38 163.802 21.988C163.578 21.596 163.177 21.4 162.598 21.4L159.322 22.772V34H155.682V24.06C155.682 22.2867 155.066 21.4 153.834 21.4L150.838 22.772V34H147.198V18.012H149.914L150.754 19.916L154.954 17.844C156.41 17.844 157.511 18.5533 158.258 19.972L163.466 17.844C164.922 17.844 166.005 18.3387 166.714 19.328C167.442 20.2987 167.806 21.6147 167.806 23.276V34ZM182.253 11.908C183.131 11.908 183.7 12.048 183.961 12.328C184.223 12.5893 184.353 13.1587 184.353 14.036C184.353 14.8947 184.213 15.464 183.933 15.744C183.672 16.0053 183.103 16.136 182.225 16.136C181.367 16.136 180.797 15.996 180.517 15.716C180.256 15.436 180.125 14.8667 180.125 14.008C180.125 13.1493 180.256 12.5893 180.517 12.328C180.797 12.048 181.376 11.908 182.253 11.908ZM184.045 34H180.405V18.6H184.045V34ZM200.296 34L196.656 34.028V12.944H200.296V34ZM224.563 18.012L218.487 35.792C218.207 36.5947 217.843 37.22 217.395 37.668C216.648 38.4147 215.603 38.788 214.259 38.788H212.551V35.512H213.671C214.193 35.512 214.576 35.4187 214.819 35.232C215.08 35.064 215.304 34.7187 215.491 34.196L215.771 33.412L210.955 18.012H214.791L217.647 29.128L220.727 18.012H224.563ZM113.865 50.536H108.517V67H104.625V50.536H99.3053V47.064H113.865V50.536ZM133.781 51.068L132.773 54.652C132.493 54.54 132.176 54.484 131.821 54.484C130.888 54.484 129.74 54.8853 128.377 55.688V67H124.737V51.012H127.453L128.293 52.412L132.157 50.816C132.344 50.7973 132.596 50.788 132.913 50.788C133.231 50.788 133.52 50.8813 133.781 51.068ZM146.736 44.908C147.613 44.908 148.182 45.048 148.444 45.328C148.705 45.5893 148.836 46.1587 148.836 47.036C148.836 47.8947 148.696 48.464 148.416 48.744C148.154 49.0053 147.585 49.136 146.708 49.136C145.849 49.136 145.28 48.996 145 48.716C144.738 48.436 144.608 47.8667 144.608 47.008C144.608 46.1493 144.738 45.5893 145 45.328C145.28 45.048 145.858 44.908 146.736 44.908ZM148.528 67H144.888V51.6H148.528V67ZM172.283 67H169.847L168.727 65.068L164.835 67.168C162.669 67.168 161.213 66.384 160.467 64.816C160.093 64.0507 159.832 63.2293 159.683 62.352C159.552 61.456 159.487 60.532 159.487 59.58C159.487 58.6093 159.496 57.9 159.515 57.452C159.533 56.9853 159.58 56.4533 159.655 55.856C159.729 55.24 159.832 54.7267 159.963 54.316C160.112 53.9053 160.317 53.4853 160.579 53.056C160.84 52.608 161.157 52.2533 161.531 51.992C162.371 51.4133 163.463 51.124 164.807 51.124H168.643L172.283 50.9V67ZM168.643 61.904V54.4H165.871C164.844 54.4 164.125 54.792 163.715 55.576C163.323 56.36 163.127 57.536 163.127 59.104C163.127 60.6533 163.313 61.7453 163.687 62.38C164.079 63.0147 164.807 63.332 165.871 63.332L168.643 61.904ZM192.756 51.124L196.396 50.9V66.272C196.396 68.0453 195.892 69.3987 194.884 70.332C193.894 71.284 192.42 71.76 190.46 71.76C188.948 71.76 187.622 71.4613 186.484 70.864C185.886 70.5653 185.41 70.1173 185.056 69.52C184.701 68.9227 184.524 68.2133 184.524 67.392L187.912 67.224C187.912 67.7467 188.098 68.12 188.472 68.344C188.845 68.568 189.48 68.68 190.376 68.68C191.29 68.68 191.906 68.456 192.224 68.008C192.56 67.56 192.728 66.916 192.728 66.076L192.868 63.668L188.948 65.768C186.801 65.768 185.354 65.04 184.608 63.584C183.936 62.296 183.6 60.7187 183.6 58.852C183.6 56.6307 183.768 55.0627 184.104 54.148C184.458 53.14 184.962 52.412 185.616 51.964C186.456 51.404 187.557 51.124 188.92 51.124H192.756ZM192.756 60.504V54.4H189.984C188.938 54.4 188.22 54.7547 187.828 55.464C187.436 56.1733 187.24 57.1627 187.24 58.432C187.24 59.7013 187.436 60.6067 187.828 61.148C188.238 61.6707 188.957 61.932 189.984 61.932L192.756 60.504ZM221.111 59.86H211.787C211.787 61.316 212.011 62.38 212.459 63.052C212.925 63.724 213.849 64.06 215.231 64.06C216.127 64.06 216.789 63.78 217.219 63.22C217.648 62.6413 217.863 62.0907 217.863 61.568H221.139C221.139 63.5653 220.597 65.0307 219.515 65.964C218.451 66.8973 217.032 67.364 215.259 67.364C213.504 67.364 212.141 67.112 211.171 66.608C209.173 65.5813 208.175 62.856 208.175 58.432C208.175 55.8 208.744 53.8773 209.883 52.664C211.021 51.432 212.757 50.816 215.091 50.816C219.141 50.816 221.167 53.0653 221.167 57.564C221.167 58.0493 221.148 58.8147 221.111 59.86ZM211.871 57.368H217.863C217.863 56.136 217.629 55.24 217.163 54.68C216.696 54.12 215.977 53.84 215.007 53.84C214.055 53.84 213.289 54.1293 212.711 54.708C212.151 55.268 211.871 56.1547 211.871 57.368Z" fill="#392C2C"/>
<ellipse cx="30.9493" cy="33.4194" rx="30.9493" ry="33.4194" fill="url(#paint0_radial_22_221)"/>
<ellipse cx="79.5" cy="41.5" rx="7.5" ry="8.5" fill="url(#paint1_radial_22_221)" fill-opacity="0.5"/>
<ellipse cx="63.1878" cy="58.7097" rx="23.6418" ry="25.2903" fill="url(#paint2_radial_22_221)"/>
<ellipse cx="69.2059" cy="23.9355" rx="17.6239" ry="19.4194" fill="url(#paint3_radial_22_221)"/>
<defs>
<radialGradient id="paint0_radial_22_221" cx="0" cy="0" r="1" gradientUnits="userSpaceOnUse" gradientTransform="translate(30.9493 33.4194) rotate(90) scale(33.4194 30.9493)">
<stop offset="0.0151" stop-color="#49AFCB"/>
<stop offset="0.295" stop-color="#4FB1CC" stop-opacity="0.955"/>
<stop offset="1" stop-color="#D9D9D9" stop-opacity="0"/>
</radialGradient>
<radialGradient id="paint1_radial_22_221" cx="0" cy="0" r="1" gradientUnits="userSpaceOnUse" gradientTransform="translate(79.5 41.5) rotate(90) scale(8.5 7.5)">
<stop stop-color="#EB3636"/>
<stop offset="1" stop-color="#D9D9D9" stop-opacity="0"/>
</radialGradient>
<radialGradient id="paint2_radial_22_221" cx="0" cy="0" r="1" gradientUnits="userSpaceOnUse" gradientTransform="translate(63.1878 58.7097) rotate(90) scale(25.2903 23.6418)">
<stop offset="0.0152" stop-color="#F69B4E"/>
<stop offset="0.245" stop-color="#F5994C"/>
<stop offset="1" stop-color="#D9D9D9" stop-opacity="0"/>
</radialGradient>
<radialGradient id="paint3_radial_22_221" cx="0" cy="0" r="1" gradientUnits="userSpaceOnUse" gradientTransform="translate(69.2059 23.9355) rotate(90) scale(19.4194 17.6239)">
<stop offset="0.29" stop-color="#9EBC60"/>
<stop offset="1" stop-color="#D9D9D9" stop-opacity="0"/>
</radialGradient>
</defs>
</svg>
